<svg xmlns="http://www.w3.org/2000/svg" width="64" height="64" viewBox="0 0 64 64" fill="none">
  <defs>
    <radialGradient id="g1" cx="0" cy="0" r="1" gradientUnits="userSpaceOnUse" gradientTransform="translate(22 18) rotate(55) scale(56 56)">
      <stop stop-color="#FFFFFF" stop-opacity="0.28"/>
      <stop offset="0.45" stop-color="#7C3AED" stop-opacity="0.55"/>
      <stop offset="1" stop-color="#38BDF8" stop-opacity="0.55"/>
    </radialGradient>
    <linearGradient id="g2" x1="14" y1="10" x2="54" y2="56" gradientUnits="userSpaceOnUse">
      <stop stop-color="#F8FAFC" stop-opacity="0.98"/>
      <stop offset="0.5" stop-color="#E2E8F0" stop-opacity="0.96"/>
      <stop offset="1" stop-color="#F8FAFC" stop-opacity="0.98"/>
    </linearGradient>
    <filter id="soft" x="-40%" y="-40%" width="180%" height="180%">
      <feGaussianBlur in="SourceGraphic" stdDeviation="0.35" result="b"/>
      <feColorMatrix in="b" type="matrix" values="
        1 0 0 0 0
        0 1 0 0 0
        0 0 1 0 0
        0 0 0 0.9 0" />
    </filter>
  </defs>

  <rect x="3" y="3" width="58" height="58" rx="16" fill="#060A14"/>
  <rect x="3" y="3" width="58" height="58" rx="16" fill="url(#g1)"/>
  <rect x="3" y="3" width="58" height="58" rx="16" stroke="rgba(255,255,255,0.14)"/>

  <!-- Monogram -->
  <g filter="url(#soft)" transform="translate(-5 -4)">
    <path
      d="M20 41.2c1.4 2.6 4.2 4.3 7.7 4.3 4.8 0 7.9-2.5 7.9-6 0-3.1-2.1-4.7-6.4-5.7l-1.7-.4c-2.2-.5-3.2-1.1-3.2-2.2 0-1.3 1.3-2.2 3.3-2.2 2.2 0 3.8.9 4.7 2.6l3.7-1.7c-1.5-3.1-4.6-4.8-8.4-4.8-4.6 0-7.7 2.4-7.7 5.9 0 3.0 2.0 4.6 6.1 5.6l1.8.4c2.5.6 3.4 1.2 3.4 2.4 0 1.4-1.4 2.3-3.7 2.3-2.6 0-4.4-1.1-5.3-3.1L20 41.2z"
      fill="url(#g2)"
      opacity="0.98"
    />
    <path
      d="M42.1 46h-4.4l6.6-20.6h4.6L55.5 46H51l-1.3-4.2h-6.4L42.1 46zm2.1-7.3h4.6l-2.3-7.4-2.3 7.4z"
      fill="url(#g2)"
      opacity="0.98"
    />
  </g>
</svg>

